<svg width="20" height="19" viewBox="0 0 20 19" fill="none" xmlns="http://www.w3.org/2000/svg">
<g id="Vector">
<path d="M0 14.0159V2.87012C0 1.77195 0.8863 0.879836 1.9824 0.947203C2.95877 1.00721 4.11349 1.12582 5 1.35976C6.04921 1.63662 7.29611 2.22632 8.28225 2.74777C8.5893 2.91014 8.91582 3.02276 9.25 3.08625L9.25 18.2649C8.94706 18.1981 8.65151 18.0903 8.37242 17.9416C7.37293 17.4088 6.08145 16.791 5 16.5057C4.12329 16.2743 2.98428 16.1558 2.01486 16.0951C0.906046 16.0258 0 15.1269 0 14.0159Z" fill="white"/>
<path d="M10.75 18.2649C11.0529 18.1981 11.3485 18.0903 11.6276 17.9416C12.6271 17.4088 13.9185 16.791 15 16.5057C15.8767 16.2743 17.0157 16.1558 17.9851 16.0951C19.094 16.0258 20 15.1269 20 14.0159V2.80551C20 1.73306 19.1538 0.852727 18.082 0.890061C16.9534 0.929374 15.5469 1.04634 14.5 1.35976C13.5924 1.63148 12.5353 2.1765 11.6738 2.67507C11.3824 2.84376 11.0708 2.96766 10.75 3.04622L10.75 18.2649Z" fill="white"/>
</g>
</svg>
