<svg width="20" height="21" viewBox="0 0 20 21" fill="none" xmlns="http://www.w3.org/2000/svg">
<g id="Vector">
<path d="M15.5777 3.32044L13.5777 2.27088C11.8221 1.34957 10.9443 0.888916 10 0.888916C9.05573 0.888916 8.17792 1.34957 6.42229 2.27088L6.10057 2.43971L15.0236 7.53859L19.0403 5.53024C18.3941 4.79841 17.3515 4.25126 15.5777 3.32044Z" fill="white"/>
<path d="M19.7484 6.85326L15.75 8.85244V11.8889C15.75 12.3031 15.4142 12.6389 15 12.6389C14.5858 12.6389 14.25 12.3031 14.25 11.8889V9.60244L10.75 11.3524V20.7929C11.4679 20.6141 12.2848 20.1855 13.5777 19.507L15.5777 18.4574C17.7294 17.3283 18.8052 16.7637 19.4026 15.7492C20 14.7347 20 13.4722 20 10.9474V10.8304C20 8.93777 20 7.75449 19.7484 6.85326Z" fill="white"/>
<path d="M9.25 20.7929V11.3524L0.251639 6.85326C0 7.75449 0 8.93777 0 10.8304V10.9474C0 13.4722 0 14.7347 0.597397 15.7492C1.19479 16.7637 2.27062 17.3282 4.42228 18.4574L6.42229 19.507C7.71524 20.1855 8.53208 20.6141 9.25 20.7929Z" fill="white"/>
<path d="M0.959692 5.53024L10 10.0504L13.4112 8.34482L4.52456 3.26677L4.42229 3.32043C2.64855 4.25126 1.6059 4.79841 0.959692 5.53024Z" fill="white"/>
</g>
</svg>
