<svg width="20" height="21" viewBox="0 0 20 21" fill="none" xmlns="http://www.w3.org/2000/svg">
<g id="Vector">
<path d="M10 0.888916C11.8452 0.888916 13.3293 0.888916 14.5401 0.976746L11.0986 6.13894H6.40139L9.9014 0.888916H10Z" fill="white"/>
<path d="M1.46447 2.35338C2.71683 1.10102 4.62194 0.919634 8.09566 0.893365L4.59861 6.13894H0.10418C0.251429 4.37484 0.606802 3.21105 1.46447 2.35338Z" fill="white"/>
<path fill-rule="evenodd" clip-rule="evenodd" d="M0 10.8889C0 9.65217 0 8.57766 0.0264445 7.63894H19.9736C20 8.57766 20 9.65217 20 10.8889C20 15.603 20 17.96 18.5355 19.4244C17.0711 20.8889 14.714 20.8889 10 20.8889C5.28595 20.8889 2.92893 20.8889 1.46447 19.4244C0 17.96 0 15.603 0 10.8889ZM11.014 11.4741C12.338 12.3284 13 12.7556 13 13.3889C13 14.0223 12.338 14.4494 11.014 15.3037C9.67188 16.1696 9.0008 16.6026 8.5004 16.2847C8 15.9668 8 15.1075 8 13.3889C8 11.6703 8 10.811 8.5004 10.4931C9.0008 10.1752 9.67186 10.6082 11.014 11.4741Z" fill="white"/>
<path d="M19.8958 6.13894C19.7486 4.37484 19.3932 3.21105 18.5355 2.35338C17.9382 1.75606 17.1924 1.40237 16.1987 1.19294L12.9014 6.13894H19.8958Z" fill="white"/>
</g>
</svg>
