<svg width="24" height="25" viewBox="0 0 24 25" fill="none" xmlns="http://www.w3.org/2000/svg">
<path id="Vector" d="M12 0.888916C18.627 0.888916 24 6.26192 24 12.8889C24 19.5159 18.627 24.8889 12 24.8889C5.373 24.8889 0 19.5159 0 12.8889C0 6.26192 5.373 0.888916 12 0.888916ZM8.951 10.2929H6.165V18.3889H8.95V10.2929H8.951ZM15.792 10.1009C14.468 10.1009 13.799 10.7299 13.407 11.2569L13.28 11.4379V10.2919H10.494L10.504 10.7759C10.51 11.4119 10.511 12.5239 10.509 13.7059L10.494 18.3889H13.28V13.8669C13.28 13.6249 13.298 13.3829 13.372 13.2099C13.574 12.7269 14.032 12.2259 14.802 12.2259C15.757 12.2259 16.169 12.8919 16.21 13.8879L16.213 14.0559V18.3889H19V13.7459C19 11.2589 17.625 10.1009 15.792 10.1009ZM7.576 6.38892C6.623 6.38892 6 6.99392 6 7.78792C6 8.51792 6.536 9.11292 7.378 9.17992L7.558 9.18592C8.529 9.18592 9.135 8.56492 9.135 7.78792C9.116 6.99392 8.53 6.38892 7.576 6.38892Z" fill="#2A9210"/>
</svg>
