<svg width="20" height="21" viewBox="0 0 20 21" fill="none" xmlns="http://www.w3.org/2000/svg">
<path id="Vector" fill-rule="evenodd" clip-rule="evenodd" d="M9.948 1.06708e-06C9.04953 -2.73648e-05 8.3003 -5.10737e-05 7.70552 0.0799144C7.07773 0.164319 6.51093 0.34999 6.05546 0.80546C5.59999 1.26093 5.41432 1.82773 5.32991 2.45552C5.24995 3.0503 5.24997 3.79952 5.25 4.698L5.25 4.77572C3.22882 4.84185 2.01511 5.07803 1.17157 5.92158C0 7.09315 0 8.97877 0 12.75C0 16.5212 0 18.4069 1.17157 19.5784C2.34314 20.75 4.22876 20.75 7.99998 20.75H12C15.7712 20.75 17.6569 20.75 18.8284 19.5784C20 18.4069 20 16.5212 20 12.75C20 8.97877 20 7.09315 18.8284 5.92158C17.9849 5.07803 16.7712 4.84185 14.75 4.77572L14.75 4.69801C14.75 3.79954 14.7501 3.0503 14.6701 2.45552C14.5857 1.82773 14.4 1.26093 13.9445 0.80546C13.4891 0.34999 12.9223 0.164319 12.2945 0.0799144C11.6997 -5.10737e-05 10.9505 -2.73648e-05 10.052 1.06708e-06H9.948ZM13.25 4.75189V4.75C13.25 3.78599 13.2484 3.13843 13.1835 2.6554C13.1214 2.19393 13.0142 1.99644 12.8839 1.86612C12.7536 1.7358 12.5561 1.62858 12.0946 1.56654C11.6116 1.5016 10.964 1.5 10 1.5C9.03599 1.5 8.38843 1.5016 7.90539 1.56654C7.44393 1.62858 7.24643 1.7358 7.11612 1.86612C6.9858 1.99644 6.87858 2.19393 6.81654 2.6554C6.75159 3.13843 6.75 3.78599 6.75 4.75V4.75189C7.14203 4.75 7.55807 4.75 8 4.75H12C12.4419 4.75 12.858 4.75 13.25 4.75189ZM14 12.75C14 14.9591 12.2091 16.75 10 16.75C7.79086 16.75 6 14.9591 6 12.75C6 10.5409 7.79086 8.75 10 8.75C12.2091 8.75 14 10.5409 14 12.75Z" fill="#1C274C"/>
</svg>
