<svg width="19" height="19" viewBox="0 0 19 19" fill="none" xmlns="http://www.w3.org/2000/svg">
<g id="Vector">
<path d="M0.844527 1.84453C-0.281509 2.97056 -0.281509 4.79623 0.844527 5.92226L2.43227 7.51C2.44419 7.49622 2.45669 7.48276 2.46978 7.46967L6.46978 3.46967C6.48284 3.45662 6.49625 3.44415 6.50999 3.43226L4.92226 1.84453C3.79623 0.718491 1.97056 0.718491 0.844527 1.84453Z" fill="#1C274C"/>
<path d="M7.56786 4.49012C7.55597 4.50386 7.5435 4.51728 7.53044 4.53033L3.53044 8.53033C3.51735 8.54342 3.5039 8.55593 3.49011 8.56785L13.0777 18.1555C14.2038 19.2815 16.0294 19.2815 17.1555 18.1555C18.2815 17.0294 18.2815 15.2038 17.1555 14.0777L7.56786 4.49012Z" fill="#1C274C"/>
<path d="M13.1 0.307189C13.261 -0.102396 13.8385 -0.102396 13.9994 0.307189L14.4298 1.40247C14.479 1.52752 14.5776 1.62651 14.7022 1.67583L15.7934 2.1078C16.2015 2.26934 16.2015 2.849 15.7934 3.01054L14.7022 3.44252C14.5776 3.49184 14.479 3.59082 14.4298 3.71587L13.9995 4.81115C13.8385 5.22074 13.261 5.22074 13.1 4.81116L12.6697 3.71587C12.6205 3.59082 12.5219 3.49184 12.3973 3.44252L11.3061 3.01054C10.898 2.849 10.898 2.26934 11.3061 2.1078L12.3973 1.67583C12.5219 1.62651 12.6205 1.52752 12.6697 1.40247L13.1 0.307189Z" fill="#1C274C"/>
<path d="M16.9672 7.12945C17.1281 6.71987 17.7057 6.71987 17.8666 7.12945L18.0235 7.5288C18.0727 7.65385 18.1713 7.75284 18.2959 7.80215L18.6937 7.95965C19.1018 8.12119 19.1018 8.70086 18.6937 8.86239L18.2959 9.01989C18.1713 9.06921 18.0727 9.1682 18.0235 9.29325L17.8666 9.69259C17.7057 10.1022 17.1281 10.1022 16.9672 9.69259L16.8103 9.29325C16.7611 9.1682 16.6625 9.06921 16.5379 9.01989L16.14 8.86239C15.732 8.70086 15.732 8.12119 16.14 7.95965L16.5379 7.80215C16.6625 7.75284 16.7611 7.65385 16.8103 7.5288L16.9672 7.12945Z" fill="#1C274C"/>
<path d="M2.1332 13.3072C2.29414 12.8976 2.87167 12.8976 3.03261 13.3072L3.18953 13.7065C3.23867 13.8316 3.33729 13.9306 3.46188 13.9799L3.85975 14.1374C4.26783 14.2989 4.26783 14.8786 3.85975 15.0401L3.46188 15.1976C3.33729 15.2469 3.23867 15.3459 3.18953 15.471L3.03261 15.8703C2.87167 16.2799 2.29414 16.2799 2.1332 15.8703L1.97628 15.471C1.92714 15.3459 1.82852 15.2469 1.70393 15.1976L1.30606 15.0401C0.897981 14.8786 0.897981 14.2989 1.30606 14.1374L1.70393 13.9799C1.82852 13.9306 1.92714 13.8316 1.97628 13.7065L2.1332 13.3072Z" fill="#1C274C"/>
</g>
</svg>
