<svg width="18" height="21" viewBox="0 0 18 21" fill="none" xmlns="http://www.w3.org/2000/svg">
<g id="Vector">
<path d="M6.5 0.888916C5.67157 0.888916 5 1.56049 5 2.38892V3.38892C5 4.21734 5.67157 4.88892 6.5 4.88892H11.5C12.3284 4.88892 13 4.21734 13 3.38892V2.38892C13 1.56049 12.3284 0.888916 11.5 0.888916H6.5Z" fill="white"/>
<path fill-rule="evenodd" clip-rule="evenodd" d="M3.5 2.92553C2.24209 2.99611 1.44798 3.19655 0.87868 3.76586C0 4.64454 0 6.05875 0 8.88718V14.8872C0 17.7156 0 19.1298 0.87868 20.0085C1.75736 20.8872 3.17157 20.8872 6 20.8872H12C14.8284 20.8872 16.2426 20.8872 17.1213 20.0085C18 19.1298 18 17.7156 18 14.8872V8.88718C18 6.05875 18 4.64454 17.1213 3.76586C16.552 3.19655 15.7579 2.99611 14.5 2.92553V3.38892C14.5 5.04577 13.1569 6.38892 11.5 6.38892H6.5C4.84315 6.38892 3.5 5.04577 3.5 3.38892V2.92553ZM12.5117 11.4372C12.8146 11.1546 12.8309 10.68 12.5483 10.3772C12.2657 10.0744 11.7911 10.058 11.4883 10.3406L7.71429 13.863L6.51174 12.7406C6.20893 12.458 5.73434 12.4744 5.45171 12.7772C5.16909 13.08 5.18545 13.5546 5.48826 13.8372L7.20255 15.4372C7.49071 15.7062 7.93787 15.7062 8.22603 15.4372L12.5117 11.4372Z" fill="white"/>
</g>
</svg>
