<svg width="24" height="25" viewBox="0 0 24 25" fill="none" xmlns="http://www.w3.org/2000/svg">
<path id="Vector" d="M12 0.888916C18.627 0.888916 24 6.26192 24 12.8889C24 19.5159 18.627 24.8889 12 24.8889C5.373 24.8889 0 19.5159 0 12.8889C0 6.26192 5.373 0.888916 12 0.888916ZM15.193 7.88892C13.607 7.88892 12.321 9.13192 12.321 10.6659C12.321 10.8829 12.346 11.0959 12.395 11.2989C11.2617 11.2481 10.1511 10.9642 9.13255 10.4649C8.11396 9.9656 7.20927 9.2616 6.475 8.39692C6.228 8.80692 6.086 9.28392 6.086 9.79392C6.086 10.7569 6.593 11.6069 7.364 12.1049C6.90925 12.0911 6.4639 11.972 6.063 11.7569V11.7929C6.063 13.1379 7.053 14.2599 8.367 14.5159C7.94305 14.6268 7.49986 14.6429 7.069 14.5629C7.435 15.6659 8.496 16.4689 9.752 16.4909C8.72499 17.2667 7.4721 17.6847 6.185 17.6809C5.954 17.6809 5.725 17.6669 5.5 17.6409C6.82241 18.4597 8.34762 18.892 9.903 18.8889C15.186 18.8889 18.075 14.6579 18.075 10.9879C18.075 10.8679 18.073 10.7479 18.067 10.6279C18.6266 10.2383 19.1119 9.75158 19.5 9.19092C18.9742 9.41621 18.4184 9.56343 17.85 9.62792C18.4448 9.2877 18.8941 8.7412 19.113 8.09192C18.5467 8.41643 17.9302 8.64422 17.289 8.76592C17.0161 8.48686 16.69 8.26544 16.33 8.1148C15.9699 7.96415 15.5833 7.88734 15.193 7.88892Z" fill="#2A9210"/>
</svg>
